<svg width="424" height="460" viewBox="0 0 424 460" fill="none" xmlns="http://www.w3.org/2000/svg">
<path d="M72.2581 68.7148H49.803V79.0096H72.2581V68.7148Z" fill="#EBEBEB"/>
<path d="M59.7331 55.7336H37.2781V66.0284H59.7331V55.7336Z" fill="#EBEBEB"/>
<path d="M84.783 55.7336H62.328V66.0284H84.783V55.7336Z" fill="#EBEBEB"/>
<path d="M374.197 55.7336H351.742V66.0284H374.197V55.7336Z" fill="#EBEBEB"/>
<path d="M374.197 333.528H351.742V343.822H374.197V333.528Z" fill="#EBEBEB"/>
<path d="M386.722 320.546H364.267V330.841H386.722V320.546Z" fill="#EBEBEB"/>
<path d="M59.7331 333.518H37.2781V343.813H59.7331V333.518Z" fill="#EBEBEB"/>
<path d="M99.1482 221.324H121.603V211.03H99.1482V221.324Z" fill="#EBEBEB"/>
<path d="M111.673 234.306H134.128V224.011H111.673V234.306Z" fill="#EBEBEB"/>
<path d="M71.6136 0H70.6129V100.418H71.6136V0Z" fill="#C7C7C7"/>
<path d="M100.31 130.953L97.9609 136.556H44.2571L41.9166 130.953L64.7787 113.786H77.4478L100.31 130.953Z" fill="#EBEBEB"/>
<path d="M79.0336 97.2439L77.4478 113.786H64.7787L63.193 97.2439H79.0336Z" fill="#DBDBDB"/>
<path d="M100.31 130.962L97.9609 136.556H44.2571L41.9166 130.962H100.31Z" fill="#DBDBDB"/>
<path d="M142.227 0H141.226V82.3492H142.227V0Z" fill="#C7C7C7"/>
<path d="M170.923 112.884L168.574 118.487H114.87L112.53 112.884L135.392 95.7168H148.061L170.923 112.884Z" fill="#EBEBEB"/>
<path d="M149.647 79.1753L148.061 95.7169H135.392L133.806 79.1753H149.647Z" fill="#DBDBDB"/>
<path d="M170.923 112.893L168.574 118.487H114.87L112.53 112.893H170.923Z" fill="#DBDBDB"/>
<path d="M361.282 72.2568H306.17V132.048H361.282V72.2568Z" fill="white"/>
<path d="M303.304 69.1472V135.157H364.148V69.1472H303.304ZM361.248 132.048H306.128V72.2476H361.248V132.048Z" fill="#DBDBDB"/>
<path d="M357.322 120.465V99.7925H314.371V120.465H357.322Z" fill="#EBEBEB"/>
<path d="M344.729 114.089V90.2153H322.723V114.089H344.729Z" fill="#C7C7C7"/>
<path d="M366.497 69.1472H364.148V135.157H366.497V69.1472Z" fill="#C7C7C7"/>
<path d="M361.282 157.154H306.17V216.945H361.282V157.154Z" fill="white"/>
<path d="M330.033 166.722H315.643V211.821H330.033V166.722Z" fill="#C7C7C7"/>
<path d="M303.304 154.045V220.055H364.148V154.045H303.304ZM361.248 216.945H306.128V157.145H361.248V216.945Z" fill="#DBDBDB"/>
<path d="M344.729 175.113H322.723V198.987H344.729V175.113Z" fill="#EBEBEB"/>
<path d="M366.497 154.045H364.148V220.055H366.497V154.045Z" fill="#C7C7C7"/>
<path d="M361.282 242.052H306.17V301.843H361.282V242.052Z" fill="white"/>
<path d="M342.524 250.203H312.284V269.818H342.524V250.203Z" fill="#EBEBEB"/>
<path d="M303.304 238.942V304.952H364.148V238.942H303.304ZM361.248 301.843H306.128V242.043H361.248V301.843Z" fill="#DBDBDB"/>
<path d="M344.729 260.01H322.723V283.884H344.729V260.01Z" fill="#C7C7C7"/>
<path d="M366.497 238.942H364.148V304.952H366.497V238.942Z" fill="#C7C7C7"/>
<path d="M278.746 424.341C334.951 424.341 380.515 418.718 380.515 411.783C380.515 404.847 334.951 399.225 278.746 399.225C222.541 399.225 176.978 404.847 176.978 411.783C176.978 418.718 222.541 424.341 278.746 424.341Z" fill="#EBEBEB"/>
<path d="M26.0082 397.44L72.504 397.219L119.008 397.136L212 396.98L304.992 397.136L351.496 397.21L397.992 397.44L351.496 397.661L304.992 397.744L212 397.9L119.008 397.744L72.504 397.661L26.0082 397.44Z" fill="#263238"/>
<path d="M229.91 397.44H156.219C153.895 370.337 151.563 342.562 149.714 320.418C149.655 319.682 149.587 318.946 149.528 318.219C147.442 293.167 146.026 275.853 146.026 275.853H215.562C215.567 275.929 215.567 276.006 215.562 276.083C216.079 280.186 223.16 340.06 229.91 397.44Z" fill="#37474F"/>
<path d="M167.387 397.44H166.208C162.994 368.092 160.382 338.689 158.008 309.249C157.872 307.488 157.731 305.725 157.584 303.959C157.109 297.914 156.634 291.842 156.176 285.789C156.176 285.605 156.422 285.605 156.448 285.789C156.968 291.155 157.471 296.51 157.957 301.852C157.961 301.867 157.961 301.883 157.957 301.898C158.127 303.848 158.313 305.789 158.491 307.749C160.382 328.063 162.256 348.358 164.308 368.644C165.287 378.255 166.313 387.853 167.387 397.44Z" fill="#263238"/>
<path d="M205.521 275.853L196.193 342.755L195.863 345.018L195.015 351.044L194.947 351.468L194.726 353.087L188.519 397.44H148.934C144.872 372.6 140.717 347.134 137.274 326.002C137.198 325.524 137.122 325.082 137.045 324.604C132.407 296.166 129.091 275.844 129.091 275.844L205.521 275.853Z" fill="#263238"/>
<path d="M215.629 275.788C215.629 275.788 215.629 275.88 215.587 276.083C215.036 279.983 209.049 321.816 199.102 349.269C199.034 349.499 198.958 349.71 198.864 349.949C198.864 349.949 197.465 350.419 194.938 351.504C193.955 351.927 192.784 352.424 191.461 353.068L190.02 353.767C187.103 355.184 183.567 357.043 179.53 359.416C179.14 359.637 178.758 359.867 178.377 360.097C178.377 360.097 178.377 360.272 178.377 360.594C178.173 363.473 177.139 378.249 175.833 397.394H106.416C111.758 337.658 117.626 275.742 117.626 275.742L215.629 275.788Z" fill="#37474F"/>
<path d="M125.394 287.426C123.418 315.449 121.527 343.473 119.458 371.459C118.813 380.119 118.152 388.78 117.473 397.44H116.456C119.39 360.775 122.18 324.11 124.826 287.445C124.843 287.04 125.419 287.04 125.394 287.426Z" fill="#263238"/>
<path d="M202.375 347.981C194.067 351.261 186.038 355.318 178.377 360.106C178.344 360.122 178.314 360.145 178.289 360.173C178.265 360.201 178.245 360.234 178.232 360.27C178.219 360.307 178.213 360.345 178.214 360.384C178.215 360.423 178.222 360.462 178.237 360.497C178.251 360.533 178.272 360.565 178.298 360.592C178.324 360.619 178.355 360.64 178.388 360.654C178.422 360.668 178.457 360.675 178.493 360.674C178.529 360.673 178.564 360.665 178.597 360.649C186.679 356.877 194.921 353.289 202.808 349.03C202.936 348.967 203.036 348.852 203.086 348.71C203.136 348.568 203.132 348.41 203.075 348.271C203.017 348.131 202.912 348.023 202.78 347.968C202.649 347.914 202.503 347.919 202.375 347.981Z" fill="#263238"/>
<path d="M204.945 287.794C204.945 287.491 204.427 287.426 204.436 287.794C204.495 298.209 203.885 307.363 203.079 317.096C202.697 321.613 199.348 346.582 192.131 344.761C190.919 344.457 190.3 343.169 190.113 341.191C189.884 338.817 190.707 335.901 191.071 333.537C191.919 328.302 192.521 323.058 192.928 317.786C193.77 307.955 193.673 298.055 192.64 288.245C192.63 288.186 192.601 288.133 192.558 288.095C192.516 288.057 192.462 288.036 192.407 288.036C192.352 288.036 192.298 288.057 192.256 288.095C192.213 288.133 192.184 288.186 192.174 288.245C192.174 301.889 191.852 315.505 189.969 329.019C189.07 335.515 186.051 345.294 192.318 346.288C198.585 347.281 202.816 330.933 203.596 326.453C205.767 313.941 205.852 300.444 204.945 287.794Z" fill="#263238"/>
<path d="M192.318 345.396C191.677 347.083 191.136 348.813 190.698 350.575C190.231 351.934 190.001 353.375 190.02 354.826C190.031 354.883 190.056 354.937 190.094 354.979C190.133 355.021 190.181 355.05 190.234 355.062C190.287 355.075 190.342 355.071 190.393 355.05C190.444 355.029 190.488 354.993 190.52 354.945C191.275 353.666 191.847 352.27 192.216 350.805C192.767 349.204 193.344 347.613 193.853 345.994C193.865 345.794 193.817 345.596 193.716 345.428C193.615 345.261 193.467 345.134 193.293 345.066C193.12 344.999 192.931 344.994 192.755 345.054C192.579 345.113 192.425 345.233 192.318 345.396Z" fill="#263238"/>
<path d="M159.644 295.964C159.658 294.875 159.556 293.789 159.339 292.725C159.331 292.689 159.312 292.657 159.285 292.634C159.258 292.611 159.225 292.599 159.191 292.599C159.157 292.599 159.123 292.611 159.096 292.634C159.069 292.657 159.05 292.689 159.042 292.725C158.841 293.63 158.73 294.555 158.712 295.485C158.61 296.562 158.474 297.629 158.372 298.705C158.156 300.903 157.802 303.083 157.312 305.228C156.401 309.286 154.497 313.002 151.8 315.983C149.119 318.839 145.951 321.101 142.472 322.644C138.597 324.429 134.51 325.091 130.507 326.37C130.338 326.416 130.388 326.683 130.507 326.692C134.952 326.679 139.354 325.743 143.473 323.932C147.113 322.447 150.426 320.153 153.2 317.197C155.984 314.149 157.943 310.331 158.864 306.157C159.328 304.011 159.589 301.82 159.644 299.616C159.712 298.4 159.712 297.18 159.644 295.964Z" fill="#263238"/>
<path d="M185.822 179.4C191.411 192.979 232.089 255.889 264.78 263.488C270.292 264.767 287.396 270.636 297.292 255.3C310.665 234.591 319.196 194.929 317.322 173.779C315.77 156.299 271.716 169.409 269.121 179.363C267.162 186.898 263.677 211.618 262.253 211.223C252.992 208.628 225.407 182.703 197.915 166.741C185.169 159.289 181.523 168.903 185.822 179.4Z" fill="#AD6359"/>
<path d="M259.547 221.968C259.738 220.422 260.001 218.886 260.336 217.368C261.037 214.443 261.985 211.595 263.168 208.858C263.219 208.739 263.423 208.812 263.38 208.95C262.532 211.775 261.913 214.71 261.218 217.589C260.879 219.024 260.557 220.45 260.26 221.895C259.963 223.339 259.59 224.839 259.361 226.329C259.361 226.412 259.208 226.403 259.217 226.329C259.31 224.848 259.361 223.413 259.547 221.968Z" fill="#263238"/>
<path d="M317.525 177.008C317.525 177.008 316.796 154.1 309.223 138.865C303.991 128.331 290.245 106.794 257.351 105.414C249.549 105.092 238.212 110.63 250.779 116.178C259.709 120.124 266.467 119.701 271.275 123.022C271.275 123.022 257.631 131.928 257.631 140.42C257.631 144.219 257.114 152.444 258.352 160.485C258.352 160.485 260.785 162.794 262.948 162.693C262.948 162.693 263.185 170.642 271.428 178.848L317.525 177.008Z" fill="#AD6359"/>
<path d="M217.088 129.214C213.085 132.139 210.898 139.049 214.12 145.617C217.342 152.186 225.5 151.349 229.384 148.469C233.268 145.59 236.55 138.405 233.234 132.277C230.427 126.96 224.135 124.089 217.088 129.214Z" fill="#FF8473"/>
<path opacity="0.1" d="M217.088 129.214C213.085 132.139 210.898 139.049 214.12 145.617C217.342 152.186 225.5 151.349 229.384 148.469C233.268 145.59 236.55 138.405 233.234 132.277C230.427 126.96 224.135 124.089 217.088 129.214Z" fill="black"/>
<path d="M218.309 130.934C215.044 133.317 213.264 138.966 215.892 144.329C218.521 149.693 225.22 149.012 228.375 146.657C231.529 144.302 234.235 138.441 231.529 133.427C229.189 129.085 224.05 126.748 218.309 130.934Z" fill="#FF8473"/>
<path d="M225.144 133.915C225.432 134.163 226.467 133.225 225.899 132.784C225.331 132.342 224.771 133.602 225.144 133.915Z" fill="white"/>
<path d="M227.561 140.07C227.417 140.429 228.511 141.284 228.765 140.576C229.019 139.867 227.756 139.591 227.561 140.07Z" fill="white"/>
<path d="M229.986 137.678C230.045 138.064 231.394 138.129 231.25 137.384C231.105 136.638 229.91 137.163 229.986 137.678Z" fill="white"/>
<path d="M225.076 131.219C225.432 131.155 225.5 129.701 224.813 129.849C224.126 129.996 224.601 131.302 225.076 131.219Z" fill="white"/>
<path d="M218.623 136.316C218.716 135.939 217.512 135.277 217.359 136.022C217.207 136.767 218.496 136.822 218.623 136.316Z" fill="white"/>
<path d="M221.506 144.44C221.209 144.21 220.217 145.194 220.802 145.608C221.387 146.022 221.896 144.753 221.506 144.44Z" fill="white"/>
<path d="M223.872 143.952C223.516 143.888 223.024 145.25 223.719 145.342C224.415 145.434 224.347 144.035 223.872 143.952Z" fill="white"/>
<path d="M221.387 138.193C221.642 137.917 220.896 136.694 220.429 137.273C219.963 137.853 221.048 138.561 221.387 138.193Z" fill="white"/>
<path d="M214.129 139.205C214.129 139.205 220.701 138.414 221.565 139.858C222.43 141.303 217.758 147.651 216.986 147.089C216.215 146.528 213.416 141.615 214.129 139.205Z" fill="#FF8473"/>
<path opacity="0.1" d="M214.129 139.205C214.129 139.205 220.701 138.414 221.565 139.858C222.43 141.303 217.758 147.651 216.986 147.089C216.215 146.528 213.416 141.615 214.129 139.205Z" fill="black"/>
<path d="M225.365 148.663C225.365 148.663 223.423 141.799 224.576 140.613C225.729 139.426 232.335 143.216 231.979 144.145C231.623 145.075 227.68 148.966 225.365 148.663Z" fill="#FF8473"/>
<path opacity="0.1" d="M225.365 148.663C225.365 148.663 223.423 141.799 224.576 140.613C225.729 139.426 232.335 143.216 231.979 144.145C231.623 145.075 227.68 148.966 225.365 148.663Z" fill="black"/>
<path d="M233.734 136.022C233.734 136.022 227.306 137.715 226.28 136.399C225.254 135.083 229.138 128.119 229.969 128.597C230.8 129.076 234.15 133.529 233.734 136.022Z" fill="#FF8473"/>
<path opacity="0.1" d="M233.734 136.022C233.734 136.022 227.306 137.715 226.28 136.399C225.254 135.083 229.138 128.119 229.969 128.597C230.8 129.076 234.15 133.529 233.734 136.022Z" fill="black"/>
<path d="M222.837 127.677C222.837 127.677 224.406 134.651 223.194 135.764C221.981 136.877 215.562 132.664 215.994 131.762C216.427 130.861 220.548 127.217 222.837 127.677Z" fill="#FF8473"/>
<path opacity="0.1" d="M222.837 127.677C222.837 127.677 224.406 134.651 223.194 135.764C221.981 136.877 215.562 132.664 215.994 131.762C216.427 130.861 220.548 127.217 222.837 127.677Z" fill="black"/>
<path d="M236.346 139.371C233.251 140.65 218.436 143.851 218.436 143.851L218.725 143.088L234.608 137.724C234.722 137.676 234.815 137.583 234.869 137.464C234.922 137.344 234.932 137.207 234.896 137.08C234.878 137.013 234.847 136.951 234.806 136.898C234.765 136.844 234.715 136.8 234.658 136.768C234.601 136.736 234.538 136.717 234.474 136.712C234.41 136.708 234.346 136.717 234.285 136.74L219.437 141.156L219.903 139.932L236.151 134.173C236.22 134.159 236.285 134.13 236.342 134.088C236.4 134.045 236.448 133.989 236.484 133.925C236.521 133.86 236.544 133.788 236.552 133.713C236.561 133.638 236.555 133.562 236.534 133.49C236.514 133.418 236.479 133.351 236.433 133.294C236.387 133.238 236.33 133.192 236.267 133.161C236.203 133.13 236.134 133.114 236.065 133.114C235.995 133.114 235.926 133.13 235.863 133.161L220.658 137.963L221.108 136.795L237.728 130.594C237.791 130.575 237.849 130.543 237.899 130.499C237.949 130.455 237.991 130.4 238.021 130.338C238.051 130.276 238.069 130.208 238.074 130.138C238.08 130.068 238.071 129.998 238.051 129.932C238.033 129.865 238.004 129.803 237.964 129.75C237.923 129.696 237.874 129.652 237.817 129.62C237.761 129.588 237.699 129.569 237.636 129.564C237.572 129.559 237.509 129.568 237.449 129.591L221.845 134.844L222.227 133.851C222.227 133.851 237.864 127.3 239.713 126.914C243.045 126.206 241.036 137.439 236.346 139.371Z" fill="#455A64"/>
<path d="M239.789 130.079C241.96 129.002 250.872 124.743 251.924 124.301C253.145 123.786 296.334 105.561 298.055 105.505C299.777 105.45 298.996 111.863 298.004 113.215C297.012 114.567 256.096 126.794 251.975 128.561C247.658 130.401 239.543 134.081 239.543 134.081L239.789 130.079Z" fill="#455A64"/>
<path d="M306.857 137.678C302.168 133.998 292.094 126.445 281.867 123.353C270.512 119.922 247.786 116.637 245.538 125.755C243.885 132.443 252.467 134.531 252.467 134.531C252.467 134.531 242.808 135.313 242.537 141.707C242.291 147.54 249.007 148.718 249.007 148.718C249.007 148.718 243.223 150.291 243.987 155.958C244.902 162.766 256.868 158.35 263.287 164.385C264.729 165.738 306.857 137.678 306.857 137.678Z" fill="#AD6359"/>
<path d="M280.527 136.979C275.6 134.32 262.956 131.403 252.636 134.32C252.399 134.384 252.322 134.614 252.543 134.605C261.929 134.19 271.326 135.018 280.527 137.071C280.561 137.08 280.586 137.006 280.527 136.979Z" fill="#263238"/>
<path d="M277.008 149.316C272.53 147.476 259.378 145.121 249.024 148.488C248.786 148.561 248.727 148.791 248.947 148.773C258.288 147.84 267.696 148.059 276.991 149.426C277.042 149.445 277.059 149.334 277.008 149.316Z" fill="#263238"/>
<path d="M213.866 225.041L256.944 200.1C256.944 200.1 214.247 171.874 194.548 163.76C174.018 155.268 166.25 161.515 184.737 185.895C202.943 209.87 213.866 225.041 213.866 225.041Z" fill="#FF8473"/>
<path d="M253.408 197.8C252.584 198.037 251.779 198.345 251 198.72C249.842 199.263 248.761 199.978 247.786 200.845C249.031 200.644 250.244 200.254 251.39 199.686C252.286 199.267 253.139 198.746 253.934 198.131C253.756 198.039 253.552 197.919 253.408 197.8ZM208.023 204.764C206.865 205.3 205.785 206.016 204.817 206.889C206.061 206.685 207.271 206.292 208.413 205.721C209.573 205.189 210.656 204.476 211.627 203.605C210.38 203.798 209.165 204.188 208.023 204.764ZM228.426 208.959C227.932 207.705 227.275 206.534 226.475 205.482C226.658 206.834 227.018 208.15 227.544 209.392C228.035 210.645 228.692 211.813 229.494 212.86C229.314 211.511 228.954 210.197 228.426 208.959ZM191.648 188.83C191.148 187.58 190.488 186.413 189.689 185.361C189.876 186.71 190.239 188.024 190.766 189.262C191.255 190.519 191.912 191.691 192.717 192.74C192.534 191.388 192.174 190.071 191.648 188.83ZM181.472 169.657C180.304 169.162 179.076 168.852 177.826 168.737C178.835 169.55 179.946 170.204 181.124 170.678C182.294 171.168 183.522 171.478 184.771 171.598C183.762 170.785 182.651 170.131 181.472 169.657ZM211.093 183.457C209.924 182.946 208.693 182.621 207.438 182.491C208.449 183.309 209.563 183.966 210.745 184.441C211.915 184.931 213.142 185.241 214.391 185.361C213.402 184.549 212.311 183.892 211.152 183.411L211.093 183.457ZM200.62 166.52C200.17 167.742 199.884 169.028 199.772 170.338C200.486 169.305 201.057 168.164 201.468 166.952L200.62 166.52ZM229.978 190.661C229.526 191.93 229.24 193.261 229.13 194.617C230.609 192.4 231.53 189.803 231.801 187.082C231.041 188.166 230.428 189.362 229.978 190.633V190.661Z" fill="white"/>
<path d="M212.848 215.28C213.806 214.562 214.875 213.983 215.884 213.357C216.893 212.731 217.97 212.078 219.013 211.434C221.133 210.137 223.253 208.877 225.407 207.625C229.647 205.132 233.946 202.611 238.263 200.201C239.45 199.529 240.637 198.876 241.841 198.241C243.045 197.607 244.385 197.009 245.674 196.346C245.688 196.345 245.703 196.348 245.715 196.356C245.727 196.364 245.737 196.376 245.743 196.391C245.748 196.405 245.75 196.421 245.747 196.436C245.743 196.451 245.736 196.465 245.725 196.475C244.69 197.128 243.69 197.883 242.655 198.536C241.621 199.189 240.51 199.879 239.433 200.523C237.307 201.793 235.167 203.041 233.013 204.267C228.773 206.696 224.533 209.143 220.293 211.471L216.664 213.44C215.417 214.121 214.179 214.884 212.873 215.436C212.848 215.464 212.746 215.363 212.848 215.28Z" fill="#263238"/>
<path d="M184.737 185.84C202.943 209.861 213.866 225.023 213.866 225.023L227.629 217.055L175.901 161.469C172.331 164.441 174.527 172.38 184.737 185.84Z" fill="#263238"/>
<path d="M223.677 316.701L109.502 324.521C109.502 324.521 120.077 205.16 159.806 161.837C164.716 156.492 176.511 156.823 184.398 160.429C187.221 161.708 197.898 175.931 201.51 189.869C205.123 203.807 223.957 316.259 223.677 316.701Z" fill="#FF8473"/>
<path d="M148.604 196.88C147.446 197.417 146.364 198.13 145.39 198.996C146.639 198.793 147.853 198.39 148.994 197.8C150.154 197.267 151.237 196.555 152.208 195.684C150.96 195.895 149.747 196.298 148.604 196.88ZM204.953 206.816C204.904 206.851 204.859 206.891 204.817 206.935C204.865 206.941 204.914 206.941 204.962 206.935C204.962 206.935 204.953 206.797 204.953 206.77V206.816ZM176.384 227.442C175.225 227.978 174.143 228.691 173.17 229.558C174.416 229.357 175.629 228.967 176.774 228.399C177.93 227.864 179.01 227.151 179.98 226.283C178.735 226.476 177.523 226.866 176.384 227.442ZM163.834 279.827C162.677 280.366 161.598 281.082 160.628 281.952C161.875 281.758 163.089 281.368 164.232 280.793C165.387 280.252 166.466 279.536 167.438 278.668C166.192 278.866 164.978 279.256 163.834 279.827ZM135.629 245.787C134.476 246.329 133.397 247.041 132.424 247.903C133.671 247.709 134.885 247.319 136.028 246.744C137.183 246.206 138.262 245.493 139.233 244.628C137.985 244.841 136.771 245.247 135.629 245.833V245.787ZM116.354 318.771C115.197 319.305 114.117 320.017 113.149 320.887C114.396 320.693 115.61 320.302 116.753 319.727C117.909 319.188 118.988 318.472 119.958 317.602C118.708 317.813 117.494 318.222 116.354 318.817V318.771ZM166.522 310.849C165.365 311.384 164.286 312.097 163.316 312.965C164.562 312.767 165.776 312.377 166.92 311.806C168.075 311.263 169.154 310.548 170.126 309.681C168.875 309.888 167.66 310.298 166.522 310.895V310.849ZM223.024 312.082C222.222 312.318 221.439 312.626 220.684 313.002C219.531 313.545 218.452 314.257 217.478 315.118C218.725 314.923 219.939 314.533 221.082 313.959C221.791 313.617 222.477 313.22 223.134 312.772C223.083 312.533 223.024 312.303 223.024 312.082ZM197.236 276.138C196.077 276.677 194.995 277.393 194.022 278.263C195.254 278.059 196.453 277.669 197.584 277.104C198.744 276.567 199.826 275.851 200.798 274.979C199.56 275.177 198.355 275.567 197.219 276.138H197.236ZM159.254 176.907C158.759 175.651 158.099 174.48 157.296 173.429C157.481 174.777 157.841 176.091 158.364 177.33C158.859 178.588 159.519 179.763 160.323 180.817C160.143 179.464 159.783 178.147 159.254 176.907ZM142.184 317.253C141.692 315.995 141.035 314.82 140.234 313.766C140.414 315.118 140.774 316.435 141.302 317.676C141.796 318.933 142.453 320.107 143.253 321.163C143.08 319.808 142.72 318.49 142.184 317.253ZM135.171 283.075C134.671 281.823 134.008 280.655 133.204 279.606C133.391 280.954 133.75 282.267 134.272 283.507C134.769 284.764 135.431 285.936 136.24 286.985C136.052 285.634 135.693 284.318 135.171 283.075ZM177.419 259.596C176.92 258.342 176.264 257.168 175.468 256.109C175.644 257.463 176.005 258.78 176.537 260.019C177.027 261.278 177.684 262.453 178.487 263.506C178.302 262.155 177.942 260.839 177.419 259.596ZM159.475 216.356C158.978 215.099 158.318 213.925 157.516 212.869C157.692 214.223 158.052 215.54 158.584 216.779C159.08 218.038 159.739 219.212 160.543 220.266C160.359 218.93 159.999 217.628 159.475 216.402V216.356ZM186.382 315.863C186.534 316.996 186.819 318.103 187.23 319.157L188.248 319.083C187.755 317.942 187.128 316.875 186.382 315.909V315.863ZM217.249 287.96C216.751 286.704 216.088 285.533 215.282 284.482C215.474 285.829 215.833 287.141 216.35 288.383C216.849 289.637 217.508 290.808 218.309 291.861C218.129 290.512 217.772 289.199 217.249 287.96ZM191.648 188.83C191.148 187.58 190.488 186.413 189.689 185.361C189.876 186.711 190.238 188.024 190.766 189.262C191.255 190.519 191.912 191.691 192.716 192.74C192.534 191.388 192.174 190.071 191.648 188.83ZM181.472 169.657C180.304 169.162 179.076 168.852 177.826 168.737C178.835 169.55 179.946 170.204 181.124 170.678C182.294 171.168 183.522 171.478 184.771 171.598C183.761 170.785 182.651 170.131 181.472 169.657ZM149.502 265.006C148.338 264.49 147.109 264.164 145.856 264.04C146.868 264.856 147.981 265.513 149.163 265.99C150.334 266.477 151.561 266.787 152.81 266.91C151.81 266.106 150.707 265.465 149.536 265.006H149.502ZM121.858 299.303C120.688 298.793 119.457 298.468 118.203 298.337C120.248 299.945 122.645 300.944 125.156 301.235C124.157 300.428 123.058 299.778 121.892 299.303H121.858ZM199.526 302.063C198.356 301.553 197.126 301.228 195.871 301.097C197.916 302.705 200.313 303.704 202.825 303.995C201.825 303.19 200.726 302.54 199.56 302.063H199.526ZM194.09 251.04C192.923 250.542 191.694 250.232 190.444 250.12C191.451 250.937 192.562 251.591 193.743 252.061C194.911 252.564 196.138 252.889 197.389 253.027C196.397 252.195 195.296 251.525 194.124 251.04H194.09ZM183.711 208.131C182.544 207.631 181.315 207.321 180.064 207.211C181.072 208.025 182.183 208.676 183.363 209.143C184.53 209.653 185.758 209.979 187.009 210.109C186.017 209.279 184.917 208.613 183.745 208.131H183.711ZM137.376 223.385C136.916 224.652 136.631 225.984 136.528 227.341C137.997 225.115 138.916 222.518 139.199 219.797C138.431 220.889 137.817 222.098 137.376 223.385ZM179.445 292.118C178.986 293.385 178.7 294.718 178.597 296.074C179.35 294.98 179.955 293.775 180.395 292.495C180.843 291.225 181.128 289.894 181.243 288.539C180.492 289.632 179.892 290.837 179.462 292.118H179.445ZM199 227.562C198.541 228.835 198.255 230.174 198.152 231.536C199.632 229.313 200.553 226.71 200.823 223.983C200.067 225.076 199.458 226.281 199.017 227.562H199ZM150.978 297.749C150.518 299.018 150.233 300.354 150.13 301.714C150.878 300.611 151.48 299.4 151.919 298.117C152.372 296.848 152.657 295.516 152.767 294.161C152.02 295.258 151.423 296.466 150.995 297.749H150.978ZM119.246 265.3C118.793 266.572 118.508 267.907 118.398 269.265C119.152 268.17 119.755 266.962 120.187 265.677C120.648 264.411 120.934 263.078 121.035 261.721C120.296 262.821 119.7 264.025 119.263 265.3H119.246ZM158.576 243.275C158.113 244.544 157.827 245.88 157.728 247.241C159.206 245.02 160.127 242.42 160.399 239.697C159.633 240.786 159.019 241.992 158.576 243.275ZM170.516 191.921C170.069 193.195 169.784 194.529 169.668 195.886C170.422 194.793 171.027 193.587 171.466 192.307C171.917 191.035 172.203 189.7 172.314 188.342C171.566 189.439 170.964 190.643 170.524 191.921H170.516Z" fill="white"/>
<path d="M161.459 165.278C164.242 172.181 168.656 178.163 174.256 182.62C176.989 184.905 180.188 186.444 183.584 187.11C185.37 187.492 187.22 187.29 188.901 186.53C190.46 185.612 191.777 184.275 192.725 182.648C193.827 180.847 194.667 178.873 195.218 176.796C195.864 174.473 196.354 172.103 196.685 169.703C196.681 169.692 196.68 169.68 196.681 169.668C196.683 169.657 196.687 169.645 196.693 169.636C196.699 169.626 196.708 169.618 196.717 169.612C196.727 169.607 196.738 169.604 196.749 169.604C196.76 169.604 196.77 169.607 196.78 169.612C196.79 169.618 196.798 169.626 196.804 169.636C196.811 169.645 196.815 169.657 196.816 169.668C196.817 169.68 196.816 169.692 196.812 169.703C196.507 171.976 196.371 174.303 195.905 176.511C195.521 178.506 194.894 180.437 194.039 182.252C193.219 183.996 192.062 185.527 190.647 186.742C189.124 187.956 187.262 188.567 185.373 188.471C181.691 188.285 178.134 186.971 175.112 184.681C172.106 182.532 169.428 179.888 167.175 176.842C164.617 173.389 162.611 169.496 161.239 165.324C161.233 165.292 161.239 165.259 161.256 165.233C161.273 165.206 161.299 165.187 161.328 165.181C161.357 165.175 161.387 165.182 161.412 165.2C161.437 165.218 161.454 165.246 161.459 165.278Z" fill="#263238"/>
<path d="M186.39 182.96C179.708 184.175 169.066 172.454 165.14 163.291C164.877 162.665 166.115 156.326 167.293 148.571C167.989 143.851 168.667 138.58 168.989 133.722C169.049 132.719 196.634 143.124 196.634 143.124C196.634 143.124 193.242 153.115 192.784 161.589C192.757 162.258 192.783 162.929 192.861 163.594C192.866 163.705 192.866 163.815 192.861 163.925C193.183 167.743 192.852 181.774 186.39 182.96Z" fill="#AD6359"/>
<path d="M189.952 163.88C190.914 163.971 191.882 163.971 192.844 163.88C192.844 163.751 192.844 163.64 192.844 163.548C192.761 162.884 192.738 162.212 192.776 161.543C193.242 153.07 196.609 143.088 196.609 143.088C196.609 143.088 174.222 134.633 169.744 133.694C170.261 139.398 173.416 162.297 189.952 163.88Z" fill="#263238"/>
<path d="M164.987 100.473C162.053 111.32 167.658 142.6 174.832 149.435C185.229 159.417 202.087 160.172 209.863 146.675C217.402 133.575 209.431 93.0394 201.434 86.8018C189.664 77.5834 169.312 84.419 164.987 100.473Z" fill="#AD6359"/>
<path d="M192.377 119.453C192.377 119.37 192.25 119.582 192.267 119.664C192.691 121.762 192.861 124.264 191.233 125.295C191.182 125.295 191.233 125.433 191.233 125.405C193.344 124.642 193.098 121.357 192.377 119.453Z" fill="#263238"/>
<path d="M190.266 117.613C187.103 117.999 188.044 124.835 190.978 124.476C193.912 124.117 192.92 117.291 190.266 117.613Z" fill="#263238"/>
<path d="M204.317 117.226C204.317 117.144 204.487 117.3 204.495 117.383C204.724 119.517 205.343 121.909 207.183 122.323C207.243 122.323 207.251 122.443 207.183 122.443C204.979 122.47 204.224 119.278 204.317 117.226Z" fill="#263238"/>
<path d="M205.759 114.724C208.862 113.96 210.05 120.75 207.175 121.467C204.3 122.185 203.155 115.368 205.759 114.724Z" fill="#263238"/>
<path d="M187.349 114.89C188.138 114.487 188.907 114.042 189.655 113.556C190.529 113.211 191.274 112.564 191.775 111.716C191.885 111.415 191.9 111.084 191.819 110.773C191.738 110.462 191.564 110.189 191.326 109.995C190.249 109.241 189.028 109.59 187.934 110.17C186.816 110.72 185.93 111.705 185.449 112.93C185.359 113.213 185.347 113.518 185.412 113.809C185.478 114.1 185.619 114.365 185.819 114.571C186.019 114.777 186.27 114.917 186.541 114.974C186.812 115.03 187.092 115.001 187.349 114.89Z" fill="#263238"/>
<path d="M207.76 110.887C206.888 110.839 206.019 110.741 205.157 110.593C204.229 110.624 203.317 110.323 202.562 109.737C202.356 109.504 202.227 109.203 202.196 108.881C202.165 108.56 202.234 108.236 202.392 107.962C203.13 106.83 204.385 106.655 205.589 106.747C206.809 106.81 207.965 107.357 208.837 108.284C209.022 108.509 209.143 108.788 209.185 109.086C209.227 109.384 209.189 109.689 209.075 109.964C208.961 110.239 208.777 110.472 208.543 110.636C208.31 110.8 208.038 110.887 207.76 110.887Z" fill="#263238"/>
<path d="M193.344 138.69C193.878 139.104 194.446 139.711 195.159 139.665C195.883 139.531 196.574 139.233 197.185 138.791C197.198 138.781 197.213 138.775 197.228 138.776C197.244 138.776 197.259 138.782 197.27 138.793C197.282 138.803 197.29 138.818 197.293 138.835C197.297 138.851 197.294 138.868 197.287 138.883C197.066 139.346 196.733 139.735 196.324 140.009C195.915 140.283 195.445 140.431 194.964 140.438C194.55 140.39 194.159 140.209 193.84 139.919C193.522 139.629 193.29 139.243 193.174 138.809C193.115 138.699 193.259 138.625 193.344 138.69Z" fill="#263238"/>
<path d="M194.514 132.011C195.125 132.77 195.875 133.384 196.715 133.813C197.556 134.242 198.47 134.478 199.399 134.504C200.209 134.535 201.02 134.442 201.807 134.228C201.957 134.2 202.105 134.157 202.248 134.099C202.392 134.099 202.519 134.016 202.672 133.961C202.773 133.921 202.859 133.847 202.917 133.749C202.976 133.651 203.003 133.535 202.994 133.418C202.986 133.346 202.969 133.274 202.943 133.207V133.023C202.757 131.385 202.265 128.929 202.265 128.929C202.859 129.131 205.844 130.051 205.657 129.205C204.3 122.213 202.791 114.485 200.069 107.796C200.055 107.746 200.024 107.704 199.982 107.679C199.94 107.654 199.89 107.648 199.844 107.663C199.798 107.678 199.759 107.711 199.736 107.757C199.713 107.803 199.707 107.857 199.721 107.907C200.781 114.678 202.935 121.21 204.105 127.99C203.039 127.652 201.934 127.476 200.823 127.466C200.62 127.567 201.849 132.195 201.875 132.94C201.88 132.967 201.88 132.995 201.875 133.023C199.399 133.777 197.381 133.262 194.675 131.818C194.506 131.698 194.379 131.864 194.514 132.011Z" fill="#263238"/>
<path d="M200.806 133.547C200.139 134.847 199.176 135.94 198.008 136.721C197.36 137.122 196.613 137.292 195.871 137.209C194.251 137.025 194.005 135.479 194.107 134.099C194.165 133.369 194.304 132.649 194.523 131.956C196.407 133.201 198.609 133.758 200.806 133.547Z" fill="#263238"/>
<path d="M198.008 136.721C197.36 137.122 196.613 137.292 195.871 137.209C194.251 137.025 194.005 135.479 194.107 134.099C195.803 134.016 197.626 134.973 198.008 136.721Z" fill="#FF97B8"/>
<path d="M197.584 94.1526C196.769 95.9339 195.548 97.4602 194.037 98.5871C192.527 99.714 190.776 100.404 188.951 100.593C185.33 100.924 181.277 99.2494 179.182 95.9282C179.123 95.827 178.979 95.9282 179.038 96.0294C181.277 99.5806 184.974 102.009 189.011 101.549C190.933 101.286 192.758 100.481 194.304 99.2136C195.85 97.9464 197.063 96.2617 197.821 94.3274C197.872 94.1066 197.652 93.987 197.584 94.1526Z" fill="#263238"/>
<path d="M182.023 72.4499C177.402 72.2659 173.111 75.7343 171.364 80.2607C170.371 82.9723 170.032 85.9141 170.38 88.8075C170.38 88.8319 170.389 88.8553 170.405 88.8725C170.421 88.8898 170.442 88.8995 170.465 88.8995C170.487 88.8995 170.509 88.8898 170.525 88.8725C170.541 88.8553 170.55 88.8319 170.55 88.8075C170.346 84.2075 171.957 79.0187 175.349 76.0379C176.872 74.5988 178.769 73.7102 180.779 73.4958C182.788 73.2815 184.809 73.752 186.56 74.8419C188.502 76.0665 189.998 77.9757 190.8 80.2515C190.822 80.2967 190.857 80.332 190.901 80.3509C190.945 80.3698 190.993 80.3709 191.038 80.3541C191.082 80.3373 191.119 80.3038 191.143 80.2595C191.166 80.2153 191.174 80.1635 191.165 80.1135C190.555 77.9696 189.349 76.0826 187.713 74.7108C186.076 73.3389 184.089 72.5492 182.023 72.4499Z" fill="#263238"/>
<path d="M217.088 75.173C215.449 72.3697 212.951 70.2844 210.033 69.285C205.988 67.8866 202.104 69.285 198.271 70.803C198.169 70.803 198.229 71.0146 198.33 70.9778C201.595 69.7174 204.97 68.641 208.447 69.515C211.307 70.232 213.851 72.0002 215.646 74.5198C217.427 77.1263 218.281 80.342 218.052 83.5766C217.823 86.8112 216.526 89.8477 214.4 92.1286C213.143 93.4057 211.659 94.3908 210.039 95.0236C208.419 95.6564 206.697 95.9235 204.979 95.8086C204.843 95.8086 204.792 96.0202 204.936 96.0294C207.285 96.2826 209.652 95.8219 211.773 94.6989C213.894 93.576 215.685 91.8349 216.946 89.6706C218.207 87.5063 218.888 85.004 218.913 82.4437C218.938 79.8833 218.306 77.3659 217.088 75.173Z" fill="#263238"/>
<path d="M164.402 103.261C164.402 103.261 162.943 93.9871 164.537 90.6383C166.132 87.2895 170.821 85.4311 170.821 85.4311C170.821 85.4311 172 76.9671 178.699 74.7499C184.711 72.7627 190.096 77.5743 190.096 77.5743C190.096 77.5743 196.609 66.3319 207.387 69.0919C217.614 71.6955 219.683 87.1607 211.83 94.2355C206.318 99.2035 196.456 95.4499 196.456 95.4499C195.668 95.7903 188.527 103.481 180.344 97.0599C180.344 97.0599 175.663 103.353 171.635 100.74C171.661 100.777 167.743 104.153 164.402 103.261Z" fill="#263238"/>
<path opacity="0.2" d="M169.083 92.2852C169.77 97.0416 171.627 110.612 170.652 113.933C169.676 117.254 167.573 125.819 166.174 126.739C164.198 116.619 163.503 105.956 164.987 100.473C165.807 97.462 167.202 94.672 169.083 92.2852Z" fill="#263238"/>
<path d="M170.109 125.58C170.109 125.58 163.325 115.699 159.144 118.358C154.964 121.017 160.314 135.516 165.343 137.347C165.972 137.631 166.647 137.775 167.328 137.768C168.009 137.762 168.682 137.605 169.306 137.309C169.93 137.012 170.492 136.581 170.958 136.042C171.423 135.503 171.784 134.867 172.017 134.173L170.109 125.58Z" fill="#AD6359"/>
<path d="M160.764 122.47C160.746 122.47 160.729 122.478 160.716 122.492C160.703 122.506 160.696 122.524 160.696 122.544C160.696 122.563 160.703 122.582 160.716 122.596C160.729 122.61 160.746 122.617 160.764 122.617C164.283 124.025 166.225 127.466 167.607 131.054C166.539 129.692 165.106 128.975 163.418 130.373C163.325 130.447 163.418 130.594 163.52 130.566C164.125 130.335 164.782 130.312 165.4 130.502C166.018 130.691 166.567 131.083 166.971 131.624C167.63 132.538 168.199 133.525 168.667 134.568C168.837 134.899 169.396 134.706 169.269 134.32C169.268 134.289 169.268 134.258 169.269 134.228C169.193 129.416 165.547 122.792 160.764 122.47Z" fill="#263238"/>
<path d="M241.951 233.873C237.432 234.793 238.636 228.307 234.447 227.884C230.258 227.461 229.002 232.484 226.425 231.766C223.847 231.049 225.695 226.035 220.565 225.989C215.434 225.943 214.264 233.606 211.161 235.373C208.057 237.139 201.383 234.14 200.586 240.276C199.789 246.413 211.245 248.455 219.471 252.751C227.697 257.048 236.592 263.58 244.012 263.12C251.966 262.577 255.426 256.956 261.515 256.063C267.603 255.171 281.595 259.256 287.557 253.469C293.518 247.682 303.143 243.018 303.287 236.743C303.431 230.469 295.833 233.229 293.4 232.925C290.966 232.622 291.195 225.694 286.514 224.728C281.833 223.762 280.68 226.909 276.609 227.221C272.539 227.534 270.792 218.941 265.085 220.487C259.378 222.033 260.845 225.529 258.377 227.056C255.91 228.583 251.11 225.115 247.777 226.706C244.445 228.298 245.979 233.091 241.951 233.873Z" fill="#455A64"/>
<path d="M260.395 237.985C265.11 238.234 263.126 231.996 267.349 230.993C271.572 229.991 273.438 234.811 275.99 233.753C278.543 232.695 276.058 227.976 281.282 227.212C286.505 226.449 288.6 233.91 291.975 235.225C295.35 236.541 301.803 232.649 303.347 238.629C304.89 244.609 293.425 248.216 285.539 253.616C277.652 259.017 269.35 266.726 261.718 267.251C253.544 267.812 249.346 262.706 243.062 262.651C236.779 262.595 222.948 268.594 216.189 263.672C209.431 258.75 199.076 255.465 198.186 249.265C197.296 243.064 205.377 244.738 207.819 244.103C210.262 243.469 209.227 236.624 213.883 235.023C218.538 233.422 220.09 236.375 224.279 236.127C228.468 235.879 229.24 227.129 235.244 227.847C241.248 228.565 240.145 232.263 242.876 233.431C245.606 234.6 250.067 230.506 253.645 231.591C257.224 232.677 256.198 237.765 260.395 237.985Z" fill="#37474F"/>
<path d="M208.684 237.682C204.682 240.607 202.494 247.517 205.716 254.085C208.939 260.654 217.097 259.817 220.98 256.937C224.864 254.058 228.146 246.873 224.83 240.745C221.989 235.428 215.697 232.557 208.684 237.682Z" fill="#FF8473"/>
<path opacity="0.1" d="M208.684 237.682C204.682 240.607 202.494 247.517 205.716 254.085C208.939 260.654 217.097 259.817 220.98 256.937C224.864 254.058 228.146 246.873 224.83 240.745C221.989 235.428 215.697 232.557 208.684 237.682Z" fill="black"/>
<path d="M209.872 239.402C206.607 241.785 204.784 247.434 207.455 252.797C210.126 258.161 216.783 257.48 219.937 255.125C223.092 252.77 225.797 246.909 223.092 241.895C220.751 237.553 215.613 235.216 209.872 239.402Z" fill="#FF8473"/>
<path d="M216.706 242.383C216.995 242.632 218.029 241.693 217.461 241.252C216.893 240.81 216.333 242.07 216.706 242.383Z" fill="white"/>
<path d="M219.123 248.538C218.979 248.897 220.073 249.752 220.327 249.044C220.582 248.335 219.318 248.059 219.123 248.538Z" fill="white"/>
<path d="M221.549 246.146C221.608 246.532 222.956 246.597 222.812 245.852C222.668 245.106 221.472 245.64 221.549 246.146Z" fill="white"/>
<path d="M216.639 239.687C216.995 239.623 217.063 238.169 216.376 238.317C215.689 238.464 216.164 239.77 216.639 239.687Z" fill="white"/>
<path d="M210.185 244.784C210.279 244.407 209.074 243.745 208.922 244.49C208.769 245.235 210.058 245.29 210.185 244.784Z" fill="white"/>
<path d="M213.068 252.917C212.772 252.687 211.78 253.672 212.365 254.086C212.95 254.5 213.459 253.221 213.068 252.917Z" fill="white"/>
<path d="M215.434 252.42C215.078 252.356 214.586 253.717 215.282 253.809C215.977 253.901 215.909 252.503 215.434 252.42Z" fill="white"/>
<path d="M212.95 246.661C213.204 246.385 212.458 245.162 211.992 245.741C211.525 246.321 212.611 247.029 212.95 246.661Z" fill="white"/>
<path d="M205.691 247.673C205.691 247.673 212.263 246.882 213.128 248.326C213.993 249.771 209.32 256.119 208.549 255.557C207.777 254.996 204.979 250.083 205.691 247.673Z" fill="#FF8473"/>
<path opacity="0.1" d="M205.691 247.673C205.691 247.673 212.263 246.882 213.128 248.326C213.993 249.771 209.32 256.119 208.549 255.557C207.777 254.996 204.979 250.083 205.691 247.673Z" fill="black"/>
<path d="M216.927 257.131C216.927 257.131 214.985 250.267 216.138 249.081C217.292 247.894 223.897 251.684 223.541 252.613C223.185 253.543 219.242 257.434 216.927 257.131Z" fill="#FF8473"/>
<path opacity="0.1" d="M216.927 257.131C216.927 257.131 214.985 250.267 216.138 249.081C217.292 247.894 223.897 251.684 223.541 252.613C223.185 253.543 219.242 257.434 216.927 257.131Z" fill="black"/>
<path d="M225.297 244.49C225.297 244.49 218.869 246.183 217.843 244.867C216.817 243.552 220.7 236.587 221.532 237.066C222.363 237.544 225.712 241.96 225.297 244.49Z" fill="#FF8473"/>
<path opacity="0.1" d="M225.297 244.49C225.297 244.49 218.869 246.183 217.843 244.867C216.817 243.552 220.7 236.587 221.532 237.066C222.363 237.544 225.712 241.96 225.297 244.49Z" fill="black"/>
<path d="M214.4 236.145C214.4 236.145 215.969 243.119 214.756 244.232C213.543 245.345 207.124 241.132 207.556 240.23C207.989 239.329 212.11 235.685 214.4 236.145Z" fill="#FF8473"/>
<path opacity="0.1" d="M214.4 236.145C214.4 236.145 215.969 243.119 214.756 244.232C213.543 245.345 207.124 241.132 207.556 240.23C207.989 239.329 212.11 235.685 214.4 236.145Z" fill="black"/>
<path d="M243.189 221.481C238.475 220.358 232.361 223.413 230.207 230.478C228.053 237.544 234.243 243.358 238.865 244.444C243.486 245.53 250.516 243.119 252.322 236.284C253.883 230.368 251.449 223.45 243.189 221.481Z" fill="#FF8473"/>
<path opacity="0.1" d="M243.189 221.481C238.475 220.358 232.361 223.413 230.207 230.478C228.053 237.544 234.243 243.358 238.865 244.444C243.486 245.53 250.516 243.119 252.322 236.284C253.883 230.368 251.449 223.45 243.189 221.481Z" fill="black"/>
<path d="M242.867 223.56C239.026 222.64 234.031 225.142 232.267 230.92C230.503 236.697 235.566 241.454 239.34 242.328C243.113 243.202 248.863 241.251 250.364 235.667C251.61 230.855 249.617 225.207 242.867 223.56Z" fill="#FF8473"/>
<path d="M245.598 231.021C245.598 231.417 246.972 231.582 246.878 230.828C246.785 230.073 245.547 230.506 245.598 231.021Z" fill="white"/>
<path d="M243.173 237.167C242.825 237.305 243.011 238.749 243.656 238.464C244.3 238.179 243.613 236.992 243.173 237.167Z" fill="white"/>
<path d="M246.437 237.415C246.217 237.737 247.099 238.832 247.497 238.206C247.896 237.581 246.717 237.001 246.437 237.415Z" fill="white"/>
<path d="M247.345 229.08C247.633 229.328 248.659 228.371 248.082 227.939C247.506 227.507 246.963 228.785 247.345 229.08Z" fill="white"/>
<path d="M239.492 227.562C239.814 227.369 239.416 225.97 238.822 226.366C238.229 226.762 239.077 227.81 239.492 227.562Z" fill="white"/>
<path d="M236.066 235.446C236.015 235.051 234.667 234.949 234.794 235.695C234.921 236.44 236.126 235.952 236.066 235.446Z" fill="white"/>
<path d="M238.025 236.955C237.822 236.624 236.575 237.185 236.991 237.792C237.406 238.4 238.288 237.36 238.025 236.955Z" fill="white"/>
<path d="M240.145 231.03C240.51 231.03 240.807 229.604 240.145 229.623C239.484 229.641 239.67 231.021 240.145 231.03Z" fill="white"/>
<path d="M234.464 226.025C234.464 226.025 239.552 230.625 239.17 232.318C238.788 234.011 231.343 234.71 231.182 233.717C231.021 232.723 232.352 227.139 234.464 226.025Z" fill="#FF8473"/>
<path opacity="0.1" d="M234.464 226.025C234.464 226.025 239.552 230.625 239.17 232.318C238.788 234.011 231.343 234.71 231.182 233.717C231.021 232.723 232.352 227.139 234.464 226.025Z" fill="black"/>
<path d="M235.922 241.38C235.922 241.38 239.153 235.115 240.739 235.198C242.324 235.281 244.36 243.091 243.495 243.478C242.63 243.864 237.313 243.413 235.922 241.38Z" fill="#FF8473"/>
<path opacity="0.1" d="M235.922 241.38C235.922 241.38 239.153 235.115 240.739 235.198C242.324 235.281 244.36 243.091 243.495 243.478C242.63 243.864 237.313 243.413 235.922 241.38Z" fill="black"/>
<path d="M250.16 239.2C250.16 239.2 244.589 235.317 244.758 233.606C244.928 231.895 252.238 230.156 252.509 231.113C252.78 232.07 252.076 237.829 250.16 239.2Z" fill="#FF8473"/>
<path opacity="0.1" d="M250.16 239.2C250.16 239.2 244.589 235.317 244.758 233.606C244.928 231.895 252.238 230.156 252.509 231.113C252.78 232.07 252.076 237.829 250.16 239.2Z" fill="black"/>
<path d="M248.167 224.903C248.167 224.903 244.597 230.948 243.02 230.764C241.443 230.58 239.84 222.658 240.722 222.355C241.604 222.051 246.887 222.787 248.167 224.903Z" fill="#FF8473"/>
<path opacity="0.1" d="M248.167 224.903C248.167 224.903 244.597 230.948 243.02 230.764C241.443 230.58 239.84 222.658 240.722 222.355C241.604 222.051 246.887 222.787 248.167 224.903Z" fill="black"/>
<path d="M256.486 255.171C260.039 258.713 266.738 259.403 271.877 254.472C277.016 249.541 274.354 241.123 270.86 237.682C267.366 234.241 260.166 232.475 255.443 237.397C251.356 241.666 250.253 248.97 256.486 255.171Z" fill="#FF8473"/>
<path opacity="0.1" d="M256.486 255.171C260.039 258.713 266.738 259.403 271.877 254.472C277.016 249.541 274.354 241.123 270.86 237.682C267.366 234.241 260.166 232.475 255.443 237.397C251.356 241.666 250.253 248.97 256.486 255.171Z" fill="black"/>
<path d="M257.741 253.515C260.641 256.404 266.119 256.965 270.317 252.945C274.515 248.924 272.344 242.043 269.469 239.218C266.594 236.394 260.735 234.968 256.876 238.988C253.552 242.475 252.653 248.446 257.741 253.515Z" fill="#FF8473"/>
<path d="M258.827 245.64C258.979 245.281 257.894 244.407 257.631 245.106C257.368 245.805 258.64 246.081 258.827 245.64Z" fill="white"/>
<path d="M263.77 241.619C264.127 241.693 264.618 240.341 263.94 240.23C263.262 240.12 263.296 241.527 263.77 241.619Z" fill="white"/>
<path d="M261.057 239.623C261.396 239.476 261.142 238.041 260.506 238.363C259.87 238.685 260.624 239.825 261.057 239.623Z" fill="white"/>
<path d="M256.418 246.321C256.283 245.953 254.96 246.219 255.248 246.909C255.536 247.599 256.605 246.79 256.418 246.321Z" fill="white"/>
<path d="M262.498 251.933C262.134 251.933 261.828 253.34 262.498 253.331C263.168 253.322 262.973 251.942 262.498 251.933Z" fill="white"/>
<path d="M269.113 246.983C268.977 247.351 270.088 248.17 270.325 247.461C270.563 246.753 269.291 246.505 269.113 246.983Z" fill="white"/>
<path d="M268.112 244.609C268.112 245.005 269.477 245.198 269.393 244.444C269.308 243.689 268.078 244.094 268.112 244.609Z" fill="white"/>
<path d="M263.533 248.575C263.219 248.372 262.303 249.449 262.922 249.807C263.541 250.166 263.949 248.841 263.533 248.575Z" fill="white"/>
<path d="M266.136 255.999C266.136 255.999 263.889 249.246 264.983 247.995C266.077 246.744 272.853 250.194 272.539 251.132C272.225 252.071 268.468 256.183 266.136 255.999Z" fill="#FF8473"/>
<path opacity="0.1" d="M266.136 255.999C266.136 255.999 263.889 249.246 264.983 247.995C266.077 246.744 272.853 250.194 272.539 251.132C272.225 252.071 268.468 256.183 266.136 255.999Z" fill="black"/>
<path d="M271.988 241.96C271.988 241.96 266.289 245.64 264.958 244.674C263.626 243.708 265.475 235.879 266.391 236.044C267.307 236.21 271.716 239.412 271.988 241.96Z" fill="#FF8473"/>
<path opacity="0.1" d="M271.988 241.96C271.988 241.96 266.289 245.64 264.958 244.674C263.626 243.708 265.475 235.879 266.391 236.044C267.307 236.21 271.716 239.412 271.988 241.96Z" fill="black"/>
<path d="M258.699 236.063C258.699 236.063 261.718 242.448 260.785 243.837C259.853 245.226 252.721 242.742 252.925 241.767C253.128 240.792 256.376 236.201 258.699 236.063Z" fill="#FF8473"/>
<path opacity="0.1" d="M258.699 236.063C258.699 236.063 261.718 242.448 260.785 243.837C259.853 245.226 252.721 242.742 252.925 241.767C253.128 240.792 256.376 236.201 258.699 236.063Z" fill="black"/>
<path d="M253.764 249.495C253.764 249.495 259.658 246.22 260.938 247.241C262.219 248.262 259.929 255.99 259.022 255.769C258.114 255.548 253.891 252.025 253.764 249.495Z" fill="#FF8473"/>
<path opacity="0.1" d="M253.764 249.495C253.764 249.495 259.658 246.22 260.938 247.241C262.219 248.262 259.929 255.99 259.022 255.769C258.114 255.548 253.891 252.025 253.764 249.495Z" fill="black"/>
<path d="M282.384 243.607C285.937 247.149 292.636 247.829 297.775 242.898C302.914 237.967 300.251 229.558 296.758 226.108C293.264 222.658 286.064 220.901 281.341 225.823C277.296 230.092 276.151 237.36 282.384 243.607Z" fill="#FF8473"/>
<path opacity="0.1" d="M282.384 243.607C285.937 247.149 292.636 247.829 297.775 242.898C302.914 237.967 300.251 229.558 296.758 226.108C293.264 222.658 286.064 220.901 281.341 225.823C277.296 230.092 276.151 237.36 282.384 243.607Z" fill="black"/>
<path d="M283.639 241.96C286.539 244.849 292.017 245.41 296.215 241.38C300.413 237.351 298.242 230.478 295.367 227.663C292.492 224.848 286.632 223.404 282.774 227.433C279.45 230.92 278.551 236.872 283.639 241.96Z" fill="#FF8473"/>
<path d="M284.725 234.039C284.877 233.68 283.792 232.815 283.529 233.514C283.266 234.214 284.521 234.508 284.725 234.039Z" fill="white"/>
<path d="M289.668 230.055C290.024 230.12 290.516 228.767 289.838 228.666C289.16 228.565 289.168 230 289.668 230.055Z" fill="white"/>
<path d="M286.955 228.059C287.294 227.902 287.04 226.467 286.404 226.789C285.768 227.111 286.522 228.261 286.955 228.059Z" fill="white"/>
<path d="M282.316 234.747C282.18 234.379 280.858 234.655 281.146 235.336C281.434 236.017 282.503 235.225 282.316 234.747Z" fill="white"/>
<path d="M288.396 240.359C288.032 240.359 287.726 241.776 288.396 241.758C289.066 241.739 288.871 240.378 288.396 240.359Z" fill="white"/>
<path d="M295.011 235.419C294.875 235.787 295.986 236.605 296.223 235.888C296.461 235.17 295.189 234.94 295.011 235.419Z" fill="white"/>
<path d="M294.01 233.036C294.01 233.431 295.375 233.625 295.291 232.879C295.206 232.134 293.976 232.521 294.01 233.036Z" fill="white"/>
<path d="M289.431 237.01C289.117 236.808 288.201 237.875 288.82 238.243C289.439 238.611 289.846 237.277 289.431 237.01Z" fill="white"/>
<path d="M292.034 244.425C292.034 244.425 289.787 237.673 290.881 236.431C291.975 235.189 298.75 238.62 298.437 239.568C298.123 240.515 294.366 244.609 292.034 244.425Z" fill="#FF8473"/>
<path opacity="0.1" d="M292.034 244.425C292.034 244.425 289.787 237.673 290.881 236.431C291.975 235.189 298.75 238.62 298.437 239.568C298.123 240.515 294.366 244.609 292.034 244.425Z" fill="black"/>
<path d="M297.885 230.359C297.885 230.359 292.187 234.039 290.855 233.119C289.524 232.199 291.373 224.323 292.289 224.48C293.204 224.636 297.648 227.847 297.885 230.359Z" fill="#FF8473"/>
<path opacity="0.1" d="M297.885 230.359C297.885 230.359 292.187 234.039 290.855 233.119C289.524 232.199 291.373 224.323 292.289 224.48C293.204 224.636 297.648 227.847 297.885 230.359Z" fill="black"/>
<path d="M284.597 224.48C284.597 224.48 287.616 230.865 286.683 232.254C285.751 233.643 278.619 231.168 278.822 230.184C279.026 229.2 282.274 224.627 284.597 224.48Z" fill="#FF8473"/>
<path opacity="0.1" d="M284.597 224.48C284.597 224.48 287.616 230.865 286.683 232.254C285.751 233.643 278.619 231.168 278.822 230.184C279.026 229.2 282.274 224.627 284.597 224.48Z" fill="black"/>
<path d="M279.662 237.93C279.662 237.93 285.556 234.655 286.836 235.667C288.116 236.679 285.827 244.416 284.92 244.196C284.012 243.975 279.789 240.46 279.662 237.93Z" fill="#FF8473"/>
<path opacity="0.1" d="M279.662 237.93C279.662 237.93 285.556 234.655 286.836 235.667C288.116 236.679 285.827 244.416 284.92 244.196C284.012 243.975 279.789 240.46 279.662 237.93Z" fill="black"/>
<path d="M195.896 249.716L220.726 286.414L285.564 281.98L305.95 242.19L195.896 249.716Z" fill="#EBEBEB"/>
<path d="M144.101 188.434C128.591 233.211 115.905 281.989 125.504 291.723C133.255 299.57 197.626 311.043 211.712 310.003C217.699 309.58 223.779 259.403 213.408 257.646C210.457 257.149 164.224 255.999 163.766 254.886C162.248 251.445 163.46 227.12 164.029 198.131C164.741 160.871 150.664 169.482 144.101 188.434Z" fill="#AD6359"/>
<path d="M208.523 309.58C225.288 311.733 246.039 315.523 263.482 307.216C265.439 306.341 267.07 304.78 268.112 302.781C275.99 299.211 276.804 294.096 276.804 294.096C283.198 288.328 283.368 282.983 283.368 282.983C283.368 282.983 292.568 278.677 291.093 272.21C289.456 264.942 276.847 272.412 267.603 271.924C246.403 270.793 213.45 262.568 207.395 261.583L208.523 309.58Z" fill="#AD6359"/>
<path d="M244.657 287.638C250.898 287.831 257.029 288.208 263.262 287.482C270.105 286.69 276.567 284.722 283.19 282.826C283.21 282.819 283.232 282.816 283.254 282.818C283.275 282.82 283.296 282.826 283.315 282.837C283.335 282.848 283.352 282.863 283.366 282.88C283.38 282.898 283.391 282.919 283.397 282.941C283.404 282.964 283.407 282.987 283.405 283.011C283.403 283.034 283.397 283.057 283.387 283.078C283.378 283.099 283.364 283.117 283.348 283.133C283.331 283.148 283.312 283.16 283.291 283.167C271.793 288.595 257.003 290.186 244.64 287.942C244.343 287.896 244.343 287.629 244.657 287.638Z" fill="#263238"/>
<path d="M242.172 301.42C248.252 301.245 258.945 300.868 276.762 293.857C276.821 293.857 276.872 293.931 276.813 293.968C265.789 300.187 254.468 302.496 242.18 301.732C241.799 301.705 241.765 301.429 242.172 301.42Z" fill="#263238"/>
<path d="M240.959 308.844C251.296 308.126 257.724 306.25 268.095 302.717C268.146 302.717 268.197 302.8 268.138 302.827C256.749 308.191 252.026 308.734 240.934 309.267C240.552 309.249 240.552 308.872 240.959 308.844Z" fill="#263238"/>
<path d="M242.146 268.805C239.441 267.471 240.06 265.926 245.199 264.564C250.338 263.203 271.708 262.531 270.86 254.444C270.012 246.357 240.196 249.311 231.479 250.764C222.332 252.447 213.666 256.399 206.157 262.31C212.076 263.322 230.554 266.689 242.146 268.805Z" fill="#AD6359"/>
<path d="M165.063 244.168L119.958 255.061C119.958 255.061 135.383 203.495 145.398 183.383C155.913 162.426 165.564 161.681 166.208 193.2C166.776 224.333 165.063 244.168 165.063 244.168Z" fill="#FF8473"/>
<path d="M125.767 245.41C126.869 245.005 128.04 244.766 129.159 244.49L132.653 243.57C135.019 242.953 137.393 242.383 139.767 241.822C144.508 240.709 149.256 239.568 154.014 238.537C155.328 238.261 156.634 237.976 157.948 237.737C159.263 237.498 160.738 237.323 162.121 237.065C162.205 237.065 162.214 237.185 162.121 237.203C160.95 237.516 159.806 237.939 158.635 238.261C157.465 238.583 156.244 238.905 155.04 239.181C152.665 239.758 150.291 240.319 147.917 240.865C143.236 241.923 138.589 243.009 133.857 243.956L129.914 244.747C128.548 245.023 127.158 245.391 125.767 245.529C125.724 245.548 125.691 245.437 125.767 245.41Z" fill="#263238"/>
<path d="M130.236 225.464C131.321 222.143 132.313 218.803 133.357 215.473C134.535 211.692 135.604 207.874 136.749 204.074C136.749 203.982 136.621 203.927 136.587 204.019C135.171 208.067 130.346 221.554 129.583 223.845C127.353 230.515 125.122 237.185 122.943 243.873C121.722 247.627 120.399 251.96 119.195 255.714C119.11 255.99 122.731 254.923 124.631 254.306C124.732 254.306 124.8 253.892 124.673 253.929C122.875 254.371 120.433 254.656 120.162 254.729C122.477 248.381 124.698 241.987 126.878 235.575C128.014 232.214 129.133 228.844 130.236 225.464Z" fill="#263238"/>
<path d="M158.576 243.276C158.268 244.129 158.027 245.009 157.855 245.907L158.593 245.732C158.925 245.061 159.223 244.37 159.483 243.662C159.932 242.392 160.218 241.061 160.331 239.706C159.59 240.797 158.998 242 158.576 243.276ZM137.376 223.385C136.916 224.652 136.631 225.985 136.528 227.341C137.997 225.115 138.916 222.518 139.199 219.797C138.431 220.889 137.817 222.098 137.376 223.385ZM159.424 216.402C158.927 215.145 158.267 213.971 157.465 212.916C157.641 214.269 158.002 215.587 158.534 216.826C159.029 218.084 159.688 219.258 160.492 220.312C160.328 218.963 159.986 217.646 159.475 216.402H159.424ZM159.204 176.907C158.708 175.651 158.049 174.48 157.245 173.429C157.43 174.777 157.79 176.091 158.313 177.33C158.808 178.588 159.468 179.763 160.272 180.817C160.108 179.467 159.765 178.15 159.254 176.907H159.204ZM135.578 245.833C134.425 246.375 133.346 247.087 132.373 247.949C133.62 247.755 134.834 247.365 135.977 246.79C137.132 246.252 138.211 245.539 139.182 244.674C137.954 244.877 136.757 245.268 135.629 245.833H135.578ZM148.604 196.88C147.446 197.417 146.364 198.13 145.39 198.996C146.639 198.793 147.853 198.39 148.994 197.8C150.154 197.268 151.237 196.555 152.208 195.684C150.96 195.896 149.747 196.298 148.604 196.88Z" fill="white"/>
<path opacity="0.8" d="M222.176 407.358C222.176 411.212 191.36 411.166 191.368 407.302L191.521 368.276C192.185 368.221 192.836 368.044 193.446 367.752C193.542 367.705 193.623 367.63 193.681 367.534C193.738 367.439 193.768 367.327 193.768 367.213C193.768 367.099 193.738 366.988 193.681 366.892C193.623 366.797 193.542 366.721 193.446 366.675C192.832 366.363 192.181 366.143 191.512 366.022V363.924C192.179 363.872 192.833 363.698 193.446 363.409C193.54 363.357 193.619 363.277 193.675 363.179C193.73 363.08 193.759 362.968 193.759 362.853C193.759 362.738 193.73 362.625 193.675 362.526C193.619 362.428 193.54 362.349 193.446 362.296C192.823 362.016 192.175 361.809 191.512 361.68V359.582C192.179 359.522 192.832 359.345 193.446 359.058C193.54 359.007 193.62 358.928 193.676 358.83C193.732 358.733 193.761 358.62 193.761 358.506C193.761 358.391 193.732 358.278 193.676 358.181C193.62 358.083 193.54 358.005 193.446 357.954C192.826 357.664 192.177 357.454 191.512 357.328V355.203C192.175 355.136 192.826 354.969 193.446 354.706C193.54 354.655 193.62 354.576 193.676 354.479C193.732 354.381 193.761 354.269 193.761 354.154C193.761 354.039 193.732 353.927 193.676 353.829C193.62 353.732 193.54 353.653 193.446 353.602C192.821 353.322 192.174 353.106 191.512 352.958V344.135C191.512 341.035 201.01 331.182 202.477 329.673L202.672 329.48V327.078H211.245V329.48C211.245 329.48 222.371 340.814 222.371 344.2V353.013C221.71 353.167 221.062 353.385 220.438 353.666C220.345 353.705 220.268 353.776 220.217 353.869C220.146 353.985 220.113 354.123 220.124 354.262C220.135 354.4 220.189 354.531 220.276 354.632C220.316 354.695 220.372 354.743 220.438 354.77C221.055 355.033 221.703 355.201 222.363 355.267V357.392C221.723 357.514 221.097 357.711 220.497 357.981H220.429C220.334 358.032 220.255 358.111 220.199 358.208C220.143 358.306 220.114 358.418 220.114 358.533C220.114 358.648 220.143 358.76 220.199 358.858C220.255 358.955 220.334 359.034 220.429 359.085L220.582 359.15C221.152 359.406 221.756 359.564 222.371 359.619V361.716C221.836 361.819 221.31 361.976 220.802 362.186L220.438 362.333C220.343 362.384 220.263 362.463 220.208 362.56C220.152 362.658 220.122 362.77 220.122 362.885C220.122 363 220.152 363.112 220.208 363.209C220.263 363.307 220.343 363.386 220.438 363.437C220.581 363.516 220.731 363.578 220.887 363.621C221.365 363.808 221.864 363.922 222.371 363.961V366.059C221.927 366.142 221.49 366.265 221.065 366.427C220.836 366.519 220.624 366.62 220.446 366.712C220.35 366.758 220.268 366.834 220.211 366.929C220.154 367.025 220.123 367.136 220.123 367.25C220.123 367.364 220.154 367.476 220.211 367.571C220.268 367.667 220.35 367.742 220.446 367.788C220.682 367.901 220.926 367.993 221.175 368.064C221.568 368.193 221.971 368.276 222.38 368.313V388.553L222.176 407.358Z" fill="white"/>
<path opacity="0.8" d="M219.674 348.496L219.632 385.038L219.53 404.358C219.53 407.523 194.158 407.496 194.167 404.303L194.319 348.827C196.465 349.655 201.468 351.339 205.801 350.842C210.134 350.345 215.663 348.68 219.632 348.321C219.655 348.377 219.67 348.436 219.674 348.496Z" fill="#EBEBEB"/>
<path d="M213.045 321.191L200.919 321.173C200.68 321.172 200.486 321.382 200.486 321.641L200.479 326.609C200.479 326.868 200.672 327.079 200.911 327.079L213.038 327.098C213.277 327.098 213.47 326.888 213.471 326.629L213.477 321.661C213.477 321.402 213.284 321.192 213.045 321.191Z" fill="#FF8473"/>
<path d="M42.9597 375.829C44.0146 375.822 45.0459 375.49 45.9333 374.871C46.8207 374.252 47.5275 373.372 47.9713 372.333C47.9713 372.333 50.227 374.716 53.9073 373.069C57.5877 371.422 61.4376 361.394 58.707 353.05C55.9765 344.706 48.8024 342.737 43.0275 349.26C35.2174 346.159 29.5443 351.357 30.511 360.152C31.4777 368.948 39.008 376.124 42.9597 375.829Z" fill="#FF8473"/>
<path d="M36.4046 339.747C38.4252 340.393 40.2441 341.628 41.6642 343.316C43.0843 345.004 44.0514 347.082 44.4606 349.324C44.8337 351.385 41.9166 352.139 41.5096 350.06C40.8736 346.582 38.1176 345.037 34.9969 344.025C33.1313 343.418 34.5305 339.14 36.4046 339.747Z" fill="#37474F"/>
<path d="M42.4848 351.44C42.4848 351.44 43.053 341.844 51.5669 340.593C51.2003 343.168 50.1439 345.569 48.529 347.498C46.9142 349.427 44.8123 350.798 42.4848 351.44Z" fill="#37474F"/>
<path d="M71.5118 374.201C72.1742 375.096 73.0584 375.767 74.0604 376.135C75.0624 376.504 76.1406 376.554 77.168 376.28C77.168 376.28 76.8373 379.684 80.3056 381.8C83.7739 383.916 93.4241 381 97.7829 373.52C102.142 366.04 99.1312 358.699 90.8377 357.797C88.2937 349.223 80.984 347.594 75.2091 353.85C69.4342 360.106 68.8406 370.981 71.5118 374.201Z" fill="#FF8473"/>
<path d="M93.6107 346.306C94.3908 348.429 94.6207 350.743 94.2754 352.997C93.9301 355.251 93.0228 357.36 91.6518 359.094C90.3883 360.695 88.0224 358.644 89.2944 357.043C91.4229 354.347 90.8462 351.054 89.6421 347.751C88.9213 345.791 92.8899 344.338 93.6107 346.306Z" fill="#37474F"/>
<path d="M88.9213 358.69C88.9213 358.69 96.231 353.243 102.396 359.738C100.302 361.016 97.909 361.597 95.5134 361.411C93.1177 361.224 90.8253 360.278 88.9213 358.69Z" fill="#37474F"/>
<path d="M65.915 380.126C64.8748 379.937 63.9055 379.431 63.1203 378.667C62.335 377.903 61.7661 376.912 61.48 375.811C61.48 375.811 58.936 377.78 55.4931 375.526C52.0502 373.272 49.7691 362.701 53.6784 354.927C57.5877 347.153 64.9568 346.444 69.7141 353.869C77.8803 352.158 82.7224 358.266 80.4837 366.749C78.2449 375.231 69.8073 381.092 65.915 380.126Z" fill="#FF8473"/>
<path opacity="0.1" d="M65.915 380.126C64.8748 379.937 63.9055 379.431 63.1203 378.667C62.335 377.903 61.7661 376.912 61.48 375.811C61.48 375.811 58.936 377.78 55.4931 375.526C52.0502 373.272 49.7691 362.701 53.6784 354.927C57.5877 347.153 64.9568 346.444 69.7141 353.869C77.8803 352.158 82.7224 358.266 80.4837 366.749C78.2449 375.231 69.8073 381.092 65.915 380.126Z" fill="black"/>
<path d="M77.6513 345.617C75.5659 345.914 73.595 346.823 71.9511 348.247C70.3072 349.67 69.0528 351.554 68.3233 353.694C67.6534 355.663 70.4518 356.914 71.1302 354.927C72.258 351.606 75.2006 350.548 78.44 350.088C80.348 349.812 79.5848 345.341 77.6513 345.617Z" fill="#37474F"/>
<path d="M69.9515 356.04C69.9515 356.04 70.7995 346.472 62.5654 343.776C62.5507 346.381 63.2432 348.934 64.5567 351.114C65.8702 353.295 67.7465 355.008 69.9515 356.04Z" fill="#37474F"/>
<path d="M110.766 378.479C109.754 378.805 108.677 378.813 107.661 378.502C106.644 378.191 105.73 377.574 105.025 376.722C105.025 376.722 103.515 379.721 99.5382 379.316C95.5611 378.911 89.1926 370.539 89.5573 361.689C89.9219 352.838 96.248 348.689 103.532 353.087C110.164 347.65 116.99 350.824 118.432 359.527C119.873 368.23 114.65 377.494 110.766 378.479Z" fill="#FF8473"/>
<path opacity="0.1" d="M110.766 378.479C109.754 378.805 108.677 378.813 107.661 378.502C106.644 378.191 105.73 377.574 105.025 376.722C105.025 376.722 103.515 379.721 99.5382 379.316C95.5611 378.911 89.1926 370.539 89.5573 361.689C89.9219 352.838 96.248 348.689 103.532 353.087C110.164 347.65 116.99 350.824 118.432 359.527C119.873 368.23 114.65 377.494 110.766 378.479Z" fill="black"/>
<path d="M107.306 341.89C105.555 343.155 104.156 344.914 103.26 346.978C102.363 349.042 102.003 351.332 102.218 353.602C102.413 355.7 105.432 355.442 105.237 353.372C104.906 349.848 107.119 347.502 109.841 345.534C111.436 344.365 108.934 340.722 107.306 341.89Z" fill="#37474F"/>
<path d="M104.635 354.955C104.635 354.955 101.506 345.957 93.0256 347.466C94.0706 349.811 95.7283 351.772 97.7924 353.104C99.8565 354.435 102.236 355.079 104.635 354.955Z" fill="#37474F"/>
<path d="M118.279 365.912C118.279 365.912 110.52 397.44 100.369 397.44H46.64C36.464 397.44 28.7387 365.912 28.7387 365.912H118.279Z" fill="#EBEBEB"/>
<path d="M343.177 368.138C351.242 357.098 350.979 354.862 350.869 353.887C350.869 353.63 346.671 327.916 339.149 327.916H324.352C324.402 324.824 324.487 322.451 324.555 321.917C324.852 319.562 325.895 317.317 327.557 317.317C329.219 317.317 329.253 315.1 327.557 315.1H296.664C295.011 315.1 295.011 317.317 296.664 317.317C298.318 317.317 304.491 319.903 305.416 321.209C306.34 322.515 306.603 341.9 306.374 346.297C306.145 350.695 287.472 362.011 284.809 375.268C282.147 388.525 288.642 407.413 315.431 407.413C342.219 407.413 348.706 388.525 346.06 375.268C345.496 372.725 344.52 370.311 343.177 368.138ZM324.521 346.325C324.301 344.558 324.258 339.039 324.301 333.684H338.878C341.244 335.681 344.966 349.922 345.585 354.246C345.085 355.663 342.541 359.637 339.887 363.382C333.535 355.497 324.852 349.25 324.487 346.325H324.521Z" fill="white"/>
<path d="M343.177 368.138C344.67 366.068 346.137 363.971 347.502 361.799C348.18 360.714 348.842 359.61 349.427 358.469C350.059 357.354 350.522 356.136 350.801 354.863C350.854 354.213 350.796 353.558 350.631 352.931L350.258 351.008C350.004 349.72 349.721 348.441 349.41 347.171C348.808 344.632 348.112 342.111 347.307 339.637C346.519 337.159 345.505 334.774 344.28 332.516C343.674 331.396 342.923 330.376 342.049 329.489C341.631 329.042 341.136 328.689 340.591 328.451C340.047 328.212 339.465 328.093 338.878 328.1H324.343H324.148V327.888L324.275 324.079L324.335 322.184C324.373 321.54 324.484 320.904 324.665 320.289C324.834 319.66 325.089 319.061 325.42 318.513C325.753 317.931 326.249 317.48 326.836 317.225C326.986 317.165 327.143 317.128 327.303 317.115H327.735C327.978 317.093 328.206 316.979 328.38 316.793C328.453 316.703 328.506 316.595 328.536 316.479C328.566 316.364 328.571 316.242 328.552 316.123C328.532 316.005 328.488 315.893 328.423 315.795C328.358 315.698 328.274 315.617 328.176 315.56C327.655 315.386 327.107 315.33 326.565 315.395H321.333H314.345H300.37H296.885C296.325 315.395 295.85 315.542 295.723 316.011C295.697 316.125 295.694 316.245 295.715 316.361C295.735 316.476 295.779 316.586 295.843 316.681C295.907 316.777 295.989 316.856 296.084 316.914C296.179 316.971 296.284 317.005 296.393 317.014C296.605 317.014 296.97 317.014 297.241 317.106C297.512 317.198 297.826 317.235 298.089 317.308C298.666 317.474 299.225 317.658 299.785 317.869C300.896 318.281 301.986 318.757 303.05 319.295C303.588 319.571 304.112 319.878 304.619 320.215C304.883 320.391 305.136 320.588 305.373 320.804C305.512 320.935 305.624 321.094 305.704 321.273C305.769 321.436 305.817 321.605 305.848 321.779C306.066 323.038 306.211 324.31 306.281 325.588C306.45 328.118 306.535 330.639 306.603 333.169C306.671 335.699 306.713 338.229 306.722 340.759C306.722 342.019 306.722 343.289 306.722 344.559C306.722 345.193 306.722 345.801 306.654 346.481C306.521 347.164 306.229 347.797 305.806 348.321C304.277 350.259 302.601 352.053 300.794 353.685C299.047 355.359 297.3 357.025 295.613 358.754C292.263 362.223 289.015 365.912 286.811 370.319C285.69 372.501 284.979 374.902 284.716 377.384C284.407 379.865 284.432 382.382 284.792 384.855L284.911 385.775C284.97 386.078 285.047 386.382 285.115 386.695L285.53 388.535L286.141 390.292L286.446 391.166L286.836 392.003L287.633 393.668C287.938 394.193 288.286 394.699 288.608 395.214C289.262 396.244 289.997 397.21 290.805 398.103C291.197 398.559 291.619 398.983 292.068 399.372L293.383 400.587C294.358 401.258 295.291 402.003 296.291 402.62C297.292 403.236 298.343 403.779 299.42 404.23C300.497 404.681 301.591 405.15 302.702 405.463C307.189 406.755 311.825 407.337 316.465 407.192L319.942 407.045C321.095 406.925 322.248 406.732 323.393 406.576C324.537 406.405 325.67 406.156 326.785 405.831C327.345 405.683 327.922 405.564 328.481 405.38L330.118 404.754C334.529 403.162 338.46 400.3 341.49 396.474C341.863 395.996 342.16 395.453 342.499 394.947C342.853 394.45 343.168 393.92 343.44 393.365L344.288 391.699C344.546 391.136 344.77 390.555 344.958 389.961C345.803 387.606 346.306 385.123 346.45 382.601C346.605 380.082 346.44 377.553 345.959 375.084C345.406 372.613 344.465 370.263 343.177 368.138ZM343.177 368.138C344.483 370.239 345.449 372.567 346.035 375.02C346.539 377.495 346.727 380.033 346.595 382.564C346.465 385.099 345.975 387.597 345.144 389.97C344.965 390.573 344.744 391.16 344.483 391.727L343.635 393.42C343.363 393.979 343.051 394.514 342.702 395.021C342.363 395.536 342.066 396.088 341.685 396.575C338.666 400.495 334.707 403.434 330.245 405.067L328.592 405.702C328.032 405.886 327.455 406.005 326.896 406.162C325.78 406.488 324.647 406.743 323.504 406.925C322.342 407.082 321.188 407.284 320.027 407.404L316.524 407.569C311.843 407.726 307.165 407.153 302.634 405.867C301.515 405.509 300.421 405.039 299.31 404.625C298.199 404.211 297.19 403.54 296.13 402.997C295.07 402.454 294.154 401.626 293.162 400.945L291.822 399.703C291.36 399.31 290.926 398.88 290.525 398.415C289.7 397.503 288.945 396.518 288.269 395.471C287.938 394.947 287.591 394.432 287.277 393.898L286.429 392.196L286.022 391.35L285.708 390.43L285.089 388.645L284.648 386.805C284.58 386.492 284.496 386.189 284.436 385.885L284.317 384.965C283.94 382.442 283.906 379.872 284.216 377.338C284.484 374.785 285.21 372.312 286.353 370.061C287.48 367.825 288.831 365.73 290.381 363.814C291.905 361.881 293.524 360.038 295.231 358.294C296.927 356.546 298.674 354.872 300.412 353.188C302.181 351.582 303.823 349.819 305.322 347.917C305.663 347.477 305.904 346.957 306.026 346.399C306.077 345.819 306.077 345.157 306.094 344.559C306.094 343.298 306.094 342.038 306.094 340.777C306.094 338.257 306.094 335.727 306.001 333.206C305.908 330.685 305.857 328.164 305.695 325.653C305.632 324.418 305.499 323.189 305.297 321.973C305.297 321.816 305.221 321.687 305.187 321.568C305.133 321.467 305.064 321.377 304.983 321.301C304.774 321.109 304.553 320.934 304.322 320.777C303.831 320.457 303.324 320.169 302.804 319.912C301.759 319.379 300.689 318.906 299.598 318.495C298.524 318.043 297.397 317.758 296.249 317.649C296.071 317.621 295.9 317.556 295.746 317.456C295.592 317.357 295.457 317.225 295.35 317.069C295.238 316.907 295.162 316.718 295.13 316.518C295.097 316.318 295.109 316.113 295.163 315.919C295.219 315.73 295.312 315.555 295.434 315.408C295.557 315.26 295.708 315.143 295.876 315.063C296.18 314.932 296.507 314.876 296.834 314.898H300.328H314.303H321.29H327.396C327.725 314.878 328.053 314.954 328.346 315.119C328.505 315.211 328.642 315.342 328.746 315.502C328.85 315.662 328.919 315.845 328.948 316.039C328.976 316.23 328.963 316.426 328.91 316.611C328.857 316.796 328.765 316.965 328.642 317.106C328.403 317.373 328.085 317.539 327.744 317.575C327.456 317.57 327.17 317.614 326.896 317.704C326.391 317.918 325.965 318.306 325.683 318.808C325.374 319.319 325.137 319.877 324.979 320.464C324.688 321.664 324.557 322.903 324.589 324.144L324.462 327.907L324.267 327.695H338.801C340.069 327.687 341.288 328.223 342.193 329.185C343.09 330.099 343.858 331.149 344.475 332.304C345.693 334.59 346.696 337.003 347.468 339.508C348.265 342.001 348.935 344.531 349.52 347.089C349.808 348.358 350.08 349.646 350.368 350.934L350.724 352.866C350.887 353.51 350.936 354.181 350.868 354.844C350.586 356.131 350.111 357.359 349.461 358.478C348.859 359.628 348.189 360.723 347.502 361.799C346.162 363.998 344.687 366.077 343.177 368.138Z" fill="#263238"/>
<path d="M324.487 346.325C324.368 345.276 324.343 344.227 324.301 343.169L324.233 340.005V333.684V333.62H324.292L338.869 333.427H338.963L339.013 333.482L339.497 334.006C339.632 334.199 339.751 334.402 339.878 334.595C340.118 334.984 340.339 335.386 340.54 335.8C340.93 336.628 341.269 337.474 341.6 338.321C342.236 340.032 342.795 341.771 343.296 343.519C343.796 345.267 344.305 347.024 344.729 348.8C345.153 350.575 345.577 352.369 345.831 354.2V354.283V354.357C345.467 355.212 345.039 356.034 344.551 356.813C344.084 357.586 343.593 358.34 343.092 359.094C342.097 360.585 341.074 362.057 340.023 363.51L339.878 363.704L339.726 363.52C337.304 360.515 334.712 357.676 331.967 355.019C330.601 353.676 329.219 352.351 327.879 350.98C327.209 350.29 326.548 349.6 325.937 348.846C325.266 348.152 324.767 347.284 324.487 346.325ZM324.487 346.325C324.77 347.278 325.268 348.138 325.937 348.827C326.556 349.572 327.226 350.262 327.896 350.943C329.253 352.296 330.644 353.611 332.017 354.927C334.828 357.511 337.492 360.276 339.997 363.207H339.7C340.718 361.735 341.707 360.244 342.668 358.736C343.143 357.972 343.618 357.208 344.067 356.445C344.532 355.697 344.941 354.909 345.289 354.09V354.246C345 352.47 344.585 350.695 344.144 348.928C343.703 347.162 343.236 345.414 342.736 343.666C342.236 341.918 341.685 340.198 341.04 338.505C340.735 337.659 340.396 336.831 340.031 336.012C339.698 335.213 339.245 334.479 338.691 333.84L338.835 333.896L324.258 333.703L324.318 333.638C324.284 335.748 324.284 337.855 324.318 339.958V343.123C324.36 344.218 324.377 345.276 324.487 346.325Z" fill="#263238"/>
<path d="M314.769 402.96C292.246 402.96 286.785 387.081 289.015 375.949C291.246 364.817 310.215 352.342 309.817 348.726C309.749 348.018 309.698 333.841 309.673 332.359H320.892C320.892 333.905 320.976 348.091 321.053 348.726C321.502 352.333 338.276 364.789 340.557 375.949C342.838 387.109 337.292 402.96 314.769 402.96Z" fill="#FF8473"/>
<path d="M291.483 79.4788C291.007 84.5834 289.228 89.4428 286.348 93.5116C283.467 97.5805 279.598 100.698 275.175 102.513C270.751 104.329 265.949 104.771 261.308 103.789C256.666 102.808 252.368 100.443 248.896 96.9589L236.176 98.9921L242.553 87.0321C240.957 82.8221 240.356 78.2457 240.807 73.7196C241.583 66.4907 244.955 59.8852 250.191 55.3355C255.426 50.7858 262.104 48.6587 268.776 49.4153C275.448 50.172 281.576 53.7514 285.832 59.3775C290.087 65.0036 292.127 72.2228 291.509 79.4696L291.483 79.4788Z" fill="white"/>
<path d="M291.483 79.4788C290.991 84.5761 289.213 89.4274 286.344 93.4996C285.626 94.5111 284.853 95.4757 284.029 96.3884C283.181 97.2693 282.283 98.0927 281.341 98.854C279.461 100.387 277.391 101.626 275.193 102.534C272.993 103.469 270.684 104.066 268.333 104.31C267.154 104.421 265.97 104.446 264.788 104.383C263.604 104.353 262.425 104.221 261.26 103.988C256.56 103.046 252.194 100.705 248.651 97.2256L248.956 97.3268L236.236 99.452L235.312 99.6084L235.778 98.6884L242.121 86.7284V87.1976C240.62 83.2385 239.977 78.9586 240.24 74.6874C240.503 70.4161 241.666 66.2672 243.639 62.56C245.626 58.8806 248.354 55.7357 251.619 53.36C254.884 51.0171 258.595 49.5055 262.475 48.9383C266.355 48.3712 270.302 48.7631 274.023 50.0848C277.709 51.445 281.069 53.6796 283.86 56.626C286.641 59.5612 288.773 63.143 290.093 67.1015C291.414 71.06 291.889 75.2921 291.483 79.4788ZM291.483 79.4788C291.888 75.3153 291.407 71.1066 290.077 67.1764C288.748 63.2462 286.605 59.6993 283.813 56.8086C281.022 53.9179 277.657 51.7605 273.976 50.5023C270.295 49.2441 266.398 48.9188 262.583 49.5512C258.802 50.17 255.2 51.7147 252.051 54.0684C248.933 56.4394 246.328 59.5193 244.419 63.0936C242.539 66.679 241.431 70.6799 241.18 74.796C240.943 78.9055 241.558 83.0203 242.977 86.8388L243.071 87.0872L242.944 87.308L236.533 99.268L236.075 98.5412L248.846 96.6H249.024L249.151 96.7288C252.555 100.188 256.781 102.549 261.354 103.546C262.494 103.796 263.651 103.95 264.813 104.006C268.314 104.268 271.825 103.71 275.108 102.368C277.31 101.509 279.382 100.3 281.256 98.7804C283.165 97.3008 284.855 95.5139 286.268 93.4812C289.167 89.4274 290.973 84.58 291.483 79.4788Z" fill="#263238"/>
<path d="M276.94 81.8157C274.083 85.9863 270.43 89.4384 266.23 91.9357C262.033 89.4366 258.383 85.9847 255.528 81.8157C251.763 76.4061 251.949 67.9329 257.334 66.1021C263.27 64.0781 266.23 73.8117 266.23 73.8117C266.23 73.8117 269.206 64.0137 275.134 66.1021C280.501 67.9973 280.688 76.4061 276.94 81.8157Z" fill="#FF8473"/>
</svg>
